# Blender v2.92.0 OBJ File: ''
# www.blender.org
mtllib dagothneck.mtl
o jobama
v 0.055534 -2.478767 7.285836
v 2.140572 -3.827316 8.150200
v -0.490595 -1.364441 8.576550
v -1.648346 0.540138 10.872101
v 1.841436 -1.768578 11.794350
v -8.277957 5.302616 -0.042332
v -7.448236 3.155396 -0.087104
v -8.953602 6.306854 2.123641
v -4.617571 -1.122910 -0.239652
v -5.499600 1.678093 4.278427
v -5.447721 2.845451 8.600470
v -3.897093 3.809464 7.724877
v -6.887155 5.462708 4.958449
v -7.986033 5.023228 5.118029
v 2.840805 -2.460602 7.742316
v 2.589642 -0.766762 10.965853
v 2.140572 -3.827316 8.150200
v 1.841436 -1.768578 11.794350
v 2.589642 -0.766762 10.965853
v -1.126661 1.019920 10.395190
v -1.648346 0.540138 10.872101
v -8.953602 6.306854 2.123641
v -6.667584 7.310951 1.748670
v -6.090112 6.452621 -0.102601
v -8.277957 5.302616 -0.042332
v 1.841436 -1.768578 11.794350
v -5.917394 5.834789 4.850639
v -3.897093 3.809464 7.724877
v -5.024922 4.532063 4.234157
v -3.899910 2.777363 3.305233
v -0.922798 -0.554626 5.103404
v 0.055534 -2.478767 7.285836
v 0.359261 -1.648621 7.041497
v 2.140572 -3.827316 8.150200
v -2.154313 0.115456 2.962439
v -0.922798 -0.554626 5.103404
v -2.698854 -0.483360 3.002934
v 0.583999 -1.077835 6.848000
v 2.840805 -2.460602 7.742316
v -0.549355 1.436363 9.976311
v 2.589642 -0.766762 10.965853
v 0.239819 -0.029732 7.719195
v 2.840805 -2.460602 7.742316
v 0.583999 -1.077835 6.848000
v -7.986033 5.023228 5.118029
v -3.460812 -1.136650 3.160900
v -5.917394 5.834789 4.850639
v -5.447721 2.845451 8.600470
v -2.542881 0.453949 -0.313312
v -2.154313 0.115456 2.962439
v -6.090112 6.452621 -0.102601
v -3.460812 -1.136650 3.160900
v -4.617571 -1.122910 -0.239652
v -2.542881 0.453949 -0.313312
v -1.914282 -1.711136 5.404691
v -1.914282 -1.711136 5.404691
v -0.549355 1.436363 9.976311
v -6.667584 7.310951 1.748670
v -0.429122 -2.348854 -7.926560
v -1.055691 -1.212967 -9.160696
v 1.595939 -3.681328 -8.944763
v -2.356171 0.729874 -11.345076
v 1.066580 -1.560883 -12.526829
v -8.275051 5.301838 0.048862
v -9.086642 6.342518 -2.052265
v -7.445329 3.154617 0.004090
v -5.779313 1.753067 -4.501186
v -4.613021 -1.124130 -0.096856
v -6.002000 2.994026 -8.797220
v -7.205279 5.547981 -5.026844
v -4.398261 3.943802 -8.005779
v -8.312326 5.110691 -5.123631
v 2.321455 -2.321388 -8.559019
v 1.595939 -3.681328 -8.944763
v 1.866548 -0.572937 -11.730665
v 1.066580 -1.560883 -12.526829
v -1.804926 1.201729 -10.894217
v 1.866548 -0.572937 -11.730665
v -2.356171 0.729874 -11.345076
v -9.086642 6.342518 -2.052265
v -6.087183 6.451836 -0.010635
v -6.780849 7.341309 -1.806482
v -8.275051 5.301838 0.048862
v 1.066580 -1.560883 -12.526829
v -6.230420 5.918694 -4.974643
v -5.301228 4.606125 -4.438532
v -4.398261 3.943802 -8.005779
v -4.120326 2.836445 -3.613171
v -1.265514 -0.462761 -5.653772
v -0.429122 -2.348854 -7.926560
v 1.595939 -3.681328 -8.944763
v -0.110009 -1.522835 -7.687921
v -2.357897 0.170021 -3.427644
v -2.904237 -0.428307 -3.443608
v -1.265514 -0.462761 -5.653772
v 0.126900 -0.955315 -7.499409
v 2.321455 -2.321388 -8.559019
v -1.201904 1.611275 -10.505888
v -0.271462 0.107315 -8.328924
v 1.866548 -0.572937 -11.730665
v 2.321455 -2.321388 -8.559019
v 0.126900 -0.955315 -7.499409
v -8.312326 5.110691 -5.123631
v -3.675059 -1.079224 -3.563878
v -6.230420 5.918694 -4.974643
v -6.002000 2.994026 -8.797220
v -2.536993 0.452370 -0.128506
v -2.357897 0.170021 -3.427644
v -6.087183 6.451836 -0.010635
v -3.675059 -1.079224 -3.563878
v -4.613021 -1.124130 -0.096856
v -2.536993 0.452370 -0.128506
v -2.274793 -1.614502 -5.911028
v -2.274793 -1.614502 -5.911028
v -1.201904 1.611275 -10.505888
v -6.780849 7.341309 -1.806482
vt 0.807608 0.525376
vt 0.762120 0.370214
vt 0.884528 0.520740
vt 1.003009 0.512770
vt 0.973287 0.307604
vt 0.778774 0.942980
vt 0.731087 0.861139
vt 0.852943 0.867955
vt 0.693698 0.771024
vt 0.831644 0.749390
vt 0.911916 0.800925
vt 0.837541 0.754803
vt 0.795297 0.871416
vt 0.827348 0.914242
vt 0.999831 0.428349
vt 0.999919 0.599556
vt 0.902559 0.435286
vt 1.000827 0.429052
vt 0.902038 0.435345
vt 0.941330 0.633968
vt 0.996778 0.651879
vt 0.712765 0.980182
vt 0.682516 0.894377
vt 0.642858 0.913298
vt 0.667543 0.996045
vt 0.900098 0.582992
vt 0.971398 0.699234
vt 0.864114 0.873077
vt 0.930329 0.680394
vt 0.884610 0.659029
vt 0.721672 0.747122
vt 0.981695 0.372708
vt 0.932293 0.381422
vt 0.991893 0.428349
vt 0.842458 0.290289
vt 0.873025 0.334756
vt 0.887546 0.276052
vt 0.889671 0.385513
vt 0.905735 0.434492
vt 0.781158 0.940874
vt 0.669159 0.993972
vt 0.710856 0.837762
vt 0.616373 0.817997
vt 0.673675 0.786353
vt 0.905246 0.794785
vt 0.762818 0.702590
vt 0.768078 0.833045
vt 0.965468 0.696528
vt 0.809855 0.526480
vt 0.800699 0.612722
vt 0.937826 0.516244
vt 0.941068 0.254519
vt 0.912245 0.200618
vt 0.812310 0.246432
vt 0.969925 0.308484
vt 0.798209 0.613866
vt 0.895021 0.617865
vt 1.001918 0.515195
vt 0.807608 0.525376
vt 0.884528 0.520740
vt 0.762120 0.370214
vt 1.003009 0.512770
vt 0.973287 0.307604
vt 0.778774 0.942980
vt 0.852943 0.867955
vt 0.731087 0.861139
vt 0.831644 0.749390
vt 0.693698 0.771024
vt 0.911916 0.800925
vt 0.795297 0.871416
vt 0.837541 0.754803
vt 0.827348 0.914242
vt 0.999831 0.428349
vt 0.902559 0.435286
vt 0.999919 0.599556
vt 1.000827 0.429052
vt 0.941330 0.633968
vt 0.902038 0.435345
vt 0.996778 0.651879
vt 0.712765 0.980182
vt 0.642858 0.913298
vt 0.682516 0.894377
vt 0.667543 0.996045
vt 0.900098 0.582992
vt 0.971398 0.699234
vt 0.930329 0.680394
vt 0.864114 0.873077
vt 0.884610 0.659029
vt 0.721672 0.747122
vt 0.981695 0.372708
vt 0.991893 0.428349
vt 0.932293 0.381422
vt 0.842458 0.290289
vt 0.887546 0.276052
vt 0.873025 0.334756
vt 0.889671 0.385513
vt 0.905735 0.434492
vt 0.781158 0.940874
vt 0.710856 0.837762
vt 0.669159 0.993972
vt 0.616373 0.817997
vt 0.673675 0.786353
vt 0.905246 0.794785
vt 0.762818 0.702590
vt 0.768078 0.833045
vt 0.965468 0.696528
vt 0.809855 0.526480
vt 0.800699 0.612722
vt 0.937826 0.516244
vt 0.941068 0.254519
vt 0.912245 0.200618
vt 0.812310 0.246432
vt 0.969925 0.308484
vt 0.798209 0.613866
vt 0.895021 0.617865
vt 1.001918 0.515195
vn -0.2114 -0.8947 -0.3934
vn 0.2785 -0.9416 -0.1894
vn -0.6055 -0.7203 0.3385
vn -0.4308 -0.0781 0.8991
vn 0.0015 -0.2645 0.9644
vn -0.8768 0.2693 -0.3983
vn -0.8707 -0.4847 0.0833
vn -0.9153 0.4028 0.0027
vn -0.1284 -0.9917 0.0081
vn -0.7703 -0.6092 0.1883
vn -0.6377 0.0369 0.7694
vn 0.4646 0.8541 0.2336
vn -0.2332 0.8025 0.5492
vn -0.8425 0.1595 0.5145
vn 0.7058 0.0650 -0.7054
vn 0.8093 0.4411 0.3879
vn 0.0016 -0.2645 0.9644
vn 0.8093 0.4412 0.3879
vn 0.0817 0.6407 0.7634
vn -0.0398 0.9865 0.1588
vn 0.5663 0.8012 -0.1933
vn -0.8768 0.2693 -0.3984
vn 0.5080 0.8180 0.2699
vn 0.8205 0.5694 -0.0505
vn 0.8224 0.5606 -0.0973
vn 0.8185 0.0243 -0.5741
vn 0.3576 -0.4317 -0.8281
vn 0.9450 -0.0498 -0.3233
vn 0.6127 -0.7030 -0.3610
vn 0.6215 0.1165 -0.7747
vn 0.4429 0.8414 0.3097
vn 0.6413 0.6754 -0.3640
vn 0.6216 0.1165 -0.7746
vn -0.8425 0.1595 0.5146
vn -0.1214 -0.9909 -0.0583
vn -0.6376 0.0369 0.7695
vn 0.9832 -0.1287 -0.1292
vn 0.9450 -0.0498 -0.3234
vn -0.1213 -0.9909 -0.0582
vn -0.1283 -0.9917 0.0082
vn 0.9832 -0.1287 -0.1291
vn -0.1008 -0.9682 -0.2291
vn -0.1007 -0.9682 -0.2291
vn -0.1864 -0.9014 0.3907
vn -0.6261 -0.7148 -0.3116
vn 0.2895 -0.9445 0.1552
vn -0.4872 -0.0630 -0.8710
vn -0.0600 -0.2480 -0.9669
vn -0.8496 0.2619 0.4578
vn -0.9134 0.4023 0.0624
vn -0.8745 -0.4837 -0.0359
vn -0.7811 -0.6063 -0.1493
vn -0.1291 -0.9915 -0.0169
vn -0.6853 0.0496 -0.7266
vn -0.2672 0.8116 -0.5194
vn 0.4493 0.8583 -0.2481
vn -0.8735 0.1678 -0.4571
vn 0.7493 0.0534 0.6600
vn 0.7832 0.4481 -0.4310
vn -0.0600 -0.2481 -0.9669
vn 0.0333 0.6537 -0.7561
vn 0.7832 0.4482 -0.4310
vn -0.4872 -0.0629 -0.8710
vn 0.5779 0.7981 0.1705
vn -0.0493 0.9891 -0.1390
vn -0.8495 0.2619 0.4579
vn 0.4902 0.8228 -0.2876
vn 0.8224 0.5689 0.0078
vn 0.4493 0.8582 -0.2481
vn 0.8272 0.5593 0.0543
vn 0.8533 0.0149 0.5211
vn -0.1864 -0.9014 0.3908
vn 0.4093 -0.4456 0.7962
vn 0.9636 -0.0548 0.2617
vn 0.6341 -0.7087 0.3092
vn 0.6697 0.1036 0.7354
vn 0.4228 0.8468 -0.3229
vn 0.6636 0.6695 0.3339
vn -0.8734 0.1678 -0.4571
vn -0.1179 -0.9918 0.0490
vn 0.9894 -0.1304 0.0641
vn -0.1179 -0.9918 0.0489
vn -0.0865 -0.9720 0.2185
vn 0.4228 0.8468 -0.3228
vn -0.0492 0.9891 -0.1391
usemtl Material.000f4a
s 1
f 1/1/1 2/2/2 3/3/3
f 4/4/4 3/3/3 5/5/5
f 6/6/6 7/7/7 8/8/8
f 7/7/7 9/9/9 10/10/10
f 11/11/11 12/12/12 13/13/13
f 13/13/13 14/14/14 11/11/11
f 15/15/15 16/16/16 17/17/2
f 18/18/17 19/19/18 20/20/19
f 20/20/19 21/21/4 18/18/17
f 22/22/8 23/23/20 24/24/21
f 24/24/21 25/25/22 22/22/8
f 26/26/17 17/17/2 16/16/16
f 27/27/23 28/28/12 29/29/24
f 30/30/25 29/29/24 28/28/12
f 30/30/25 28/28/12 31/31/26
f 32/32/1 33/33/27 34/34/2
f 35/35/28 36/36/26 37/37/29
f 38/38/30 39/39/15 33/33/27
f 40/40/31 41/41/18 42/42/32
f 43/43/15 44/44/33 42/42/32
f 10/10/10 45/45/34 8/8/8
f 46/46/35 10/10/10 9/9/9
f 13/13/13 47/47/23 23/23/20
f 23/23/20 22/22/8 13/13/13
f 7/7/7 10/10/10 8/8/8
f 10/10/10 48/48/36 45/45/34
f 49/49/37 30/30/25 50/50/38
f 27/27/23 29/29/24 51/51/21
f 49/49/37 51/51/21 30/30/25
f 52/52/39 53/53/40 37/37/29
f 54/54/41 35/35/28 37/37/29
f 53/53/40 54/54/41 37/37/29
f 36/36/26 55/55/42 37/37/29
f 4/4/4 48/48/36 3/3/3
f 1/1/1 3/3/3 56/56/43
f 20/20/19 57/57/31 12/12/12
f 12/12/12 11/11/11 20/20/19
f 40/40/31 42/42/32 28/28/12
f 44/44/33 31/31/26 42/42/32
f 32/32/1 55/55/42 33/33/27
f 36/36/26 38/38/30 33/33/27
f 39/39/15 34/34/2 33/33/27
f 55/55/42 36/36/26 33/33/27
f 31/31/26 28/28/12 42/42/32
f 41/41/18 43/43/15 42/42/32
f 50/50/38 30/30/25 31/31/26
f 51/51/21 29/29/24 30/30/25
f 58/58/20 27/27/23 51/51/21
f 2/2/2 5/5/5 3/3/3
f 48/48/36 56/56/43 3/3/3
f 19/19/18 57/57/31 20/20/19
f 11/11/11 21/21/4 20/20/19
f 22/22/8 14/14/14 13/13/13
f 12/12/12 47/47/23 13/13/13
f 52/52/39 37/37/29 55/55/42
f 56/56/43 10/10/10 46/46/35
f 56/56/43 48/48/36 10/10/10
f 59/59/44 60/60/45 61/61/46
f 62/62/47 63/63/48 60/60/45
f 64/64/49 65/65/50 66/66/51
f 66/66/51 67/67/52 68/68/53
f 69/69/54 70/70/55 71/71/56
f 70/70/55 69/69/54 72/72/57
f 73/73/58 74/74/46 75/75/59
f 76/76/60 77/77/61 78/78/62
f 77/77/61 76/76/60 79/79/63
f 80/80/50 81/81/64 82/82/65
f 81/81/64 80/80/50 83/83/66
f 84/84/48 75/75/59 74/74/46
f 85/85/67 86/86/68 87/87/69
f 88/88/70 87/87/69 86/86/68
f 88/88/70 89/89/71 87/87/69
f 90/90/72 91/91/46 92/92/73
f 93/93/74 94/94/75 95/95/71
f 96/96/76 92/92/73 97/97/58
f 98/98/77 99/99/78 100/100/62
f 101/101/58 99/99/78 102/102/76
f 67/67/52 65/65/50 103/103/79
f 104/104/80 68/68/53 67/67/52
f 70/70/55 82/82/65 105/105/67
f 82/82/65 70/70/55 80/80/50
f 66/66/51 65/65/50 67/67/52
f 67/67/52 103/103/79 106/106/54
f 107/107/81 108/108/74 88/88/70
f 85/85/67 109/109/64 86/86/68
f 107/107/81 88/88/70 109/109/64
f 110/110/82 94/94/75 111/111/53
f 112/112/81 94/94/75 93/93/74
f 111/111/53 94/94/75 112/112/81
f 95/95/71 94/94/75 113/113/83
f 62/62/47 60/60/45 106/106/54
f 59/59/44 114/114/83 60/60/45
f 77/77/61 71/71/56 115/115/84
f 71/71/56 77/77/61 69/69/54
f 98/98/77 87/87/69 99/99/78
f 102/102/76 99/99/78 89/89/71
f 90/90/72 92/92/73 113/113/83
f 95/95/71 92/92/73 96/96/76
f 97/97/58 92/92/73 91/91/46
f 113/113/83 92/92/73 95/95/71
f 89/89/71 99/99/78 87/87/69
f 100/100/62 99/99/78 101/101/58
f 108/108/74 89/89/71 88/88/70
f 109/109/64 88/88/70 86/86/68
f 116/116/85 109/109/64 85/85/67
f 61/61/46 60/60/45 63/63/48
f 106/106/54 60/60/45 114/114/83
f 78/78/62 77/77/61 115/115/84
f 69/69/54 77/77/61 79/79/63
f 80/80/50 70/70/55 72/72/57
f 71/71/56 70/70/55 105/105/67
f 110/110/82 113/113/83 94/94/75
f 114/114/83 104/104/80 67/67/52
f 114/114/83 67/67/52 106/106/54
