# Blender v2.92.0 OBJ File: ''
# www.blender.org
mtllib dagothface.mtl
o jobama.009
v -9.225730 -3.073616 -0.320186
v -10.136285 -0.807068 0.158404
v -10.744479 -1.098434 -0.254932
v -8.908796 5.688446 2.978344
v -9.810616 6.124748 2.203930
v -9.884513 4.570007 2.727130
v -9.168550 2.209030 4.307950
v -6.320251 0.680855 7.574127
v -6.642136 3.219231 6.131303
v -6.800650 -0.240845 6.931440
v -3.836141 1.556305 11.261703
v -4.326216 4.687027 9.402113
v -8.391618 -4.102242 4.101200
v -5.782315 -5.743256 6.244503
v -7.505433 -2.326111 6.015716
v -8.427235 -2.525429 4.651382
v -8.561961 -0.805115 4.403616
v -9.561852 -0.464439 0.843757
v -9.120417 -0.938515 1.700092
v -8.998356 -0.009285 3.256560
v -5.625879 -2.430992 7.157793
v -9.022957 -3.316101 1.805782
v -9.019519 -2.506805 2.023329
v -9.104362 -2.266121 1.286873
v -9.236038 -1.909637 1.857578
v -8.777956 -2.517097 3.592893
v -9.322062 -1.053444 3.221562
v -6.731366 -8.584976 1.641017
v -9.044634 -4.889977 -0.341468
v -7.331209 -8.071922 -0.423229
v -3.686983 -8.398201 9.293272
v -3.732527 -11.881981 5.871544
v -0.559958 -12.011856 7.892593
v -4.553457 -12.685074 4.021091
v -2.304456 -14.453217 2.889941
v -4.849015 -12.989227 1.194999
v -4.546122 -14.659454 -0.568217
v -4.712936 -12.950233 -0.548306
v -3.559952 -3.758232 10.832045
v -6.349145 -7.989967 4.065901
v -10.723611 3.045097 1.451240
v -11.890565 2.746300 0.829021
v -12.995087 2.606537 -0.151590
v -10.560825 5.536942 1.697852
v -10.736673 5.898102 0.946051
v -13.595914 10.156494 1.596062
v -13.444437 11.012375 1.560498
v -15.538405 11.879105 0.008626
v -14.602650 10.076004 -0.036585
v -2.592127 8.730453 9.894724
v -5.144854 7.005661 7.513476
v -1.171057 1.745697 13.750196
v -1.672345 5.742264 12.417858
v -0.923242 -4.037163 13.156446
v -3.311105 10.765038 7.242998
v -3.676337 9.816833 -0.386903
v -6.373297 8.899734 -0.308812
v -6.065177 9.121330 5.520846
v -9.359565 7.093903 3.026288
v -7.866925 8.200424 4.825619
v -8.866744 -4.894844 1.699647
v -9.136778 -3.837868 0.491649
v -11.325548 3.355667 -0.198382
v -11.139235 6.036598 -0.181423
v -11.801644 4.402504 0.676195
v -11.252696 7.750130 1.081888
v -11.656303 6.872162 0.942264
v -11.380570 7.977318 -0.157161
v -11.295414 6.395699 0.751295
v -0.631400 -7.627090 11.665459
v -9.969017 10.542732 -0.180224
v -11.435387 6.403549 -0.168854
v -11.828721 4.612198 -0.171620
v -9.132800 -3.830826 -0.329613
v -13.496204 11.396759 -0.060557
v -11.798116 7.008385 -0.152133
v -9.642472 2.665024 2.951402
v -7.598495 0.426521 6.648109
v -2.578930 -1.764236 -0.520767
v -1.672345 5.742264 12.417858
v -0.631400 -7.627090 11.665459
v -0.559958 -12.011856 7.892593
v -0.923242 -4.037163 13.156446
v -2.304456 -14.453217 2.889941
v -4.546122 -14.659454 -0.568217
v -1.171057 1.745697 13.750196
v -3.676337 9.816833 -0.386903
v -10.163669 -0.799728 -0.701109
v -9.114625 5.743622 -3.482229
v -10.072982 4.620522 -3.188539
v -9.965090 6.166153 -2.644654
v -9.460372 2.287254 -4.851775
v -6.826571 0.816566 -8.318218
v -7.265589 -0.116219 -7.662075
v -7.054587 3.329788 -6.814734
v -4.950751 4.854431 -10.200798
v -4.581733 1.756165 -12.140953
v -8.675287 -4.026207 -4.802604
v -7.911791 -2.217186 -6.739060
v -6.208588 -5.628990 -7.135327
v -8.744993 -2.440254 -5.322421
v -8.862741 -0.724495 -5.037266
v -9.633838 -0.445145 -1.415690
v -9.224809 0.051422 -3.851350
v -9.248059 -0.904297 -2.306348
v -6.108799 -2.301544 -8.000076
v -9.158815 -3.279686 -2.458578
v -9.206458 -2.238754 -1.917700
v -9.168793 -2.466789 -2.662062
v -9.373998 -1.872658 -2.472703
v -9.027626 -2.450172 -4.243766
v -9.546198 -0.993362 -3.813638
v -6.864249 -8.549355 -2.529922
v -4.312999 -8.230400 -10.356133
v -1.105129 -11.865723 -9.219183
v -4.142554 -11.772072 -6.998379
v -4.844475 -12.607071 -5.113399
v -2.528999 -14.393028 -4.158020
v -4.959721 -12.959557 -2.279826
v -4.281645 -3.564781 -11.820480
v -6.636823 -7.912857 -4.963713
v -10.829997 3.073616 -1.888031
v -11.955143 2.763611 -1.197987
v -10.681885 5.569397 -2.101954
v -10.809328 5.917580 -1.334432
v -13.701829 10.184883 -1.728389
v -13.547929 11.040115 -1.687942
v -3.249335 8.906616 -10.733727
v -5.646258 7.140060 -8.224602
v -2.493638 5.962410 -13.360905
v -2.080341 1.989433 -14.790436
v -1.798381 -3.802582 -14.312416
v -3.796968 10.895271 -8.007290
v -6.436735 9.220924 -6.141630
v -9.566768 7.149437 -3.477398
v -8.191078 8.287315 -5.348945
v -8.997024 -4.859924 -2.389551
v -9.189046 -3.823853 -1.148958
v -11.855778 4.417015 -1.022895
v -11.726322 6.890930 -1.255501
v -11.331944 7.771370 -1.405533
v -11.354269 6.411476 -1.096047
v -1.414180 -7.417267 -12.904490
v -9.846742 2.719780 -3.460230
v -8.043419 0.545784 -7.317191
v -2.578930 -1.764236 -0.520767
v -2.493638 5.962410 -13.360905
v -1.414180 -7.417267 -12.904490
v -1.105129 -11.865723 -9.219183
v -1.798381 -3.802582 -14.312416
v -2.528999 -14.393028 -4.158020
v -2.080341 1.989433 -14.790436
v -3.676337 9.816833 -0.386903
vt 0.499501 0.563804
vt 0.479708 0.490488
vt 0.499501 0.490488
vt 0.377453 0.230682
vt 0.419794 0.214292
vt 0.395976 0.280905
vt 0.352947 0.361713
vt 0.217423 0.435297
vt 0.267576 0.340178
vt 0.240201 0.472451
vt 0.093977 0.418827
vt 0.160560 0.295474
vt 0.341788 0.609832
vt 0.265340 0.669947
vt 0.265350 0.542947
vt 0.322569 0.548952
vt 0.329154 0.484343
vt 0.459966 0.467809
vt 0.429391 0.485325
vt 0.375276 0.453325
vt 0.234222 0.550435
vt 0.430207 0.575260
vt 0.416913 0.549232
vt 0.443424 0.535437
vt 0.422531 0.524355
vt 0.358880 0.548736
vt 0.375191 0.493967
vt 0.429913 0.768416
vt 0.499501 0.620099
vt 0.499501 0.751319
vt 0.161282 0.764612
vt 0.274770 0.900086
vt 0.196311 0.918287
vt 0.339641 0.913150
vt 0.375617 0.999202
vt 0.438694 0.937303
vt 0.499501 0.999500
vt 0.499501 0.937125
vt 0.106862 0.606692
vt 0.348724 0.739344
vt 0.439768 0.331017
vt 0.457550 0.352920
vt 0.499501 0.345827
vt 0.434479 0.239306
vt 0.465322 0.215350
vt 0.420805 0.054468
vt 0.442656 0.025346
vt 0.499501 0.000499
vt 0.499501 0.069060
vt 0.131824 0.140360
vt 0.222618 0.206174
vt 0.007560 0.412828
vt 0.040431 0.265270
vt 0.008042 0.626517
vt 0.237104 0.059420
vt 0.499501 0.118100
vt 0.499501 0.141451
vt 0.276863 0.114799
vt 0.389471 0.166366
vt 0.312548 0.173622
vt 0.427942 0.630057
vt 0.470796 0.591732
vt 0.499501 0.319072
vt 0.499810 0.211339
vt 0.469504 0.273217
vt 0.453412 0.149577
vt 0.459198 0.176576
vt 0.498116 0.150719
vt 0.466178 0.194818
vt 0.059968 0.759119
vt 0.499501 0.069018
vt 0.498501 0.197967
vt 0.499501 0.262348
vt 0.499501 0.591732
vt 0.499805 0.025976
vt 0.499081 0.174602
vt 0.386298 0.351991
vt 0.258328 0.442011
vt 0.504498 0.480823
vt 0.059353 0.248459
vt 0.073248 0.759119
vt 0.167855 0.901214
vt 0.002350 0.632208
vt 0.373089 1.005326
vt 0.504885 1.003704
vt 0.005148 0.396016
vt 0.491249 0.030047
vt 0.520292 0.490488
vt 0.622547 0.230682
vt 0.604024 0.280905
vt 0.580206 0.214292
vt 0.647053 0.361713
vt 0.782577 0.435297
vt 0.759799 0.472451
vt 0.732424 0.340178
vt 0.839440 0.295474
vt 0.906023 0.418827
vt 0.658212 0.609832
vt 0.734650 0.542947
vt 0.734660 0.669947
vt 0.677431 0.548952
vt 0.670846 0.484343
vt 0.540034 0.467809
vt 0.624724 0.453325
vt 0.570609 0.485325
vt 0.765778 0.550435
vt 0.569793 0.575260
vt 0.556576 0.535437
vt 0.583087 0.549232
vt 0.577469 0.524355
vt 0.641120 0.548736
vt 0.624809 0.493967
vt 0.570087 0.768416
vt 0.838718 0.764612
vt 0.803689 0.918287
vt 0.725230 0.900086
vt 0.660359 0.913150
vt 0.624383 0.999202
vt 0.561306 0.937303
vt 0.893138 0.606692
vt 0.651276 0.739344
vt 0.560232 0.331017
vt 0.542450 0.352920
vt 0.565521 0.239306
vt 0.534678 0.215350
vt 0.579195 0.054468
vt 0.557344 0.025346
vt 0.868176 0.140360
vt 0.777382 0.206174
vt 0.959569 0.265270
vt 0.992440 0.412828
vt 0.991958 0.626517
vt 0.762896 0.059420
vt 0.723137 0.114799
vt 0.610529 0.166366
vt 0.687452 0.173622
vt 0.572058 0.630057
vt 0.529204 0.591732
vt 0.530496 0.273217
vt 0.540802 0.176576
vt 0.546588 0.149577
vt 0.533822 0.194818
vt 0.940032 0.759119
vt 0.613702 0.351991
vt 0.741672 0.442011
vt 0.495502 0.480823
vt 0.940647 0.248459
vt 0.926752 0.759119
vt 0.832145 0.901214
vt 0.997650 0.632208
vt 0.626911 1.005326
vt 0.994852 0.396016
vt 0.508751 0.030047
vn -0.9662 -0.2561 0.0286
vn -0.5095 -0.3557 0.7835
vn -0.8243 -0.5657 0.0214
vn -0.6970 0.1294 0.7053
vn -0.7288 -0.1624 0.6652
vn -0.7604 0.1328 0.6357
vn -0.8593 0.0121 0.5113
vn -0.8097 0.0046 0.5869
vn -0.7506 0.0984 0.6533
vn -0.5586 -0.0564 0.8275
vn -0.7875 0.0233 0.6158
vn -0.8008 0.2063 0.5623
vn -0.8767 -0.2738 0.3956
vn -0.7926 -0.2751 0.5441
vn -0.7225 -0.1843 0.6663
vn -0.8804 -0.0714 0.4689
vn -0.9230 -0.1135 0.3677
vn -0.8486 -0.3013 0.4348
vn -0.9993 -0.0018 0.0373
vn -0.9377 -0.0833 0.3374
vn -0.7130 -0.1802 0.6776
vn -0.9849 -0.0794 0.1535
vn -0.9725 -0.2067 0.1072
vn -0.9912 -0.1002 0.0865
vn -0.9900 -0.1235 -0.0674
vn -0.9570 -0.1837 0.2245
vn -0.9820 -0.0513 0.1817
vn -0.8840 -0.4371 0.1656
vn -0.9507 -0.3087 0.0277
vn -0.8922 -0.4510 0.0246
vn -0.6890 -0.3897 0.6111
vn -0.4688 -0.6879 0.5542
vn 0.2976 -0.7710 0.5630
vn -0.7539 -0.5604 0.3429
vn -0.0457 -0.9702 0.2380
vn -0.8618 -0.4900 0.1314
vn -0.6972 -0.7167 0.0161
vn -0.9563 -0.2911 0.0280
vn -0.7834 -0.1226 0.6094
vn -0.8680 -0.3327 0.3686
vn -0.7847 -0.1134 0.6094
vn -0.5826 0.3335 0.7412
vn -0.9918 0.1232 0.0327
vn -0.7561 0.2615 0.5999
vn -0.8817 0.0759 0.4657
vn -0.6901 -0.4672 0.5527
vn 0.0145 0.6974 0.7165
vn -0.8570 0.5144 0.0317
vn -0.7349 -0.6779 0.0176
vn -0.1676 0.6447 0.7459
vn -0.7130 0.2760 0.6445
vn -0.0195 0.0477 0.9987
vn -0.1367 0.4785 0.8674
vn 0.0697 -0.2453 0.9669
vn -0.0867 0.9510 0.2968
vn 0.5467 0.8373 -0.0103
vn -0.1508 0.9885 0.0133
vn -0.4312 0.7812 0.4514
vn -0.6141 0.0188 0.7890
vn -0.6987 0.2972 0.6508
vn -0.9102 -0.3378 0.2395
vn -0.9942 -0.0864 0.0645
vn -0.9487 0.3145 0.0329
vn -0.9918 -0.1240 0.0305
vn -0.9320 0.0903 0.3510
vn -0.9176 -0.2802 0.2818
vn -0.9077 -0.0883 0.4102
vn -0.9745 -0.2224 0.0291
vn -0.7440 -0.6185 0.2529
vn 0.5914 -0.4067 0.6963
vn -0.1014 0.9948 0.0117
vn -0.8194 -0.5729 0.0212
vn -0.9989 0.0344 0.0321
vn -0.9942 -0.1027 0.0308
vn 0.2325 0.9726 0.0009
vn -0.9611 -0.2747 0.0283
vn -0.9108 -0.1301 0.3918
vn -0.5982 0.1143 0.7932
vn 0.9973 0.0659 -0.0312
vn 0.0697 -0.2452 0.9670
vn -0.0458 -0.9702 0.2380
vn -0.0195 0.0476 0.9987
vn -0.5585 -0.3426 -0.7554
vn -0.7404 0.1410 -0.6572
vn -0.7993 0.1433 -0.5837
vn -0.7697 -0.1514 -0.6202
vn -0.8901 0.0203 -0.4553
vn -0.8454 0.0141 -0.5340
vn -0.6101 -0.0426 -0.7912
vn -0.7907 0.1091 -0.6025
vn -0.8348 0.2154 -0.5066
vn -0.8251 0.0334 -0.5640
vn -0.9002 -0.2675 -0.3436
vn -0.7635 -0.1733 -0.6221
vn -0.8258 -0.2662 -0.4971
vn -0.9085 -0.0639 -0.4130
vn -0.9446 -0.1078 -0.3101
vn -0.8747 -0.2943 -0.3850
vn -0.9573 -0.0781 -0.2784
vn -0.9997 -0.0017 0.0263
vn -0.7548 -0.1690 -0.6338
vn -0.9928 -0.0773 -0.0919
vn -0.9948 -0.0992 -0.0250
vn -0.9775 -0.2053 -0.0486
vn -0.9838 -0.1252 0.1282
vn -0.9694 -0.1804 -0.1663
vn -0.9916 -0.0487 -0.1196
vn -0.8930 -0.4347 -0.1164
vn -0.7267 -0.3796 -0.5725
vn 0.2607 -0.7611 -0.5939
vn -0.5035 -0.6786 -0.5349
vn -0.7745 -0.5549 -0.3037
vn -0.0613 -0.9660 -0.2512
vn -0.8687 -0.4881 -0.0847
vn -0.8206 -0.1126 -0.5603
vn -0.8899 -0.3268 -0.3183
vn -0.8220 -0.1035 -0.5600
vn -0.6284 0.3459 -0.6968
vn -0.7926 0.2713 -0.5460
vn -0.9095 0.0833 -0.4072
vn -0.7241 -0.4581 -0.5155
vn -0.0308 0.7095 -0.7040
vn -0.2144 0.6572 -0.7226
vn -0.7525 0.2865 -0.5930
vn -0.1914 0.4931 -0.8486
vn -0.0830 0.0647 -0.9945
vn 0.0079 -0.2287 -0.9735
vn -0.1049 0.9559 -0.2744
vn -0.4586 0.7886 -0.4096
vn -0.6631 0.0320 -0.7479
vn -0.7385 0.3079 -0.5998
vn -0.9238 -0.3342 -0.1868
vn -0.9963 -0.0858 -0.0026
vn -0.9524 0.0958 -0.2893
vn -0.9320 -0.0817 -0.3531
vn -0.9339 -0.2759 -0.2276
vn -0.7589 -0.6145 -0.2156
vn 0.5456 -0.3944 -0.7394
vn -0.9340 -0.1239 -0.3352
vn -0.6474 0.1275 -0.7514
vn -0.1914 0.4932 -0.8486
vn 0.5457 -0.3944 -0.7394
vn 0.2608 -0.7611 -0.5939
vn 0.0078 -0.2287 -0.9735
vn -0.0614 -0.9660 -0.2512
vn -0.0830 0.0646 -0.9944
vn 0.5467 0.8373 -0.0102
usemtl Material.000eb1
s 1
f 1/1/1 2/2/2 3/3/3
f 4/4/4 5/5/5 6/6/6
f 7/7/7 4/4/4 6/6/6
f 8/8/8 9/9/9 10/10/10
f 8/8/8 11/11/11 12/12/12
f 13/13/13 14/14/14 15/15/15
f 15/15/15 16/16/16 13/13/13
f 16/16/16 15/15/15 17/17/17
f 18/18/18 19/19/19 20/20/20
f 21/21/21 8/8/8 10/10/10
f 21/21/21 15/15/15 14/14/14
f 22/22/22 23/23/23 24/24/24
f 24/24/24 25/25/25 19/19/19
f 26/26/26 22/22/22 13/13/13
f 22/22/22 26/26/26 23/23/23
f 13/13/13 16/16/16 26/26/26
f 16/16/16 17/17/17 20/20/20
f 20/20/20 27/27/27 16/16/16
f 27/27/27 20/20/20 19/19/19
f 19/19/19 25/25/25 27/27/27
f 24/24/24 19/19/19 18/18/18
f 1/1/1 18/18/18 2/2/2
f 1/1/1 24/24/24 18/18/18
f 16/16/16 27/27/27 26/26/26
f 26/26/26 27/27/27 23/23/23
f 23/23/23 27/27/27 25/25/25
f 23/23/23 25/25/25 24/24/24
f 28/28/28 29/29/29 30/30/30
f 31/31/31 32/32/32 33/33/33
f 34/34/34 32/32/32 31/31/31
f 34/34/34 35/35/35 32/32/32
f 36/36/36 35/35/35 34/34/34
f 36/36/36 37/37/37 35/35/35
f 36/36/36 38/38/38 37/37/37
f 11/11/11 8/8/8 21/21/21
f 21/21/21 39/39/39 11/11/11
f 39/39/39 21/21/21 14/14/14
f 14/14/14 31/31/31 39/39/39
f 31/31/31 14/14/14 40/40/40
f 40/40/40 34/34/34 31/31/31
f 34/34/34 40/40/40 28/28/28
f 28/28/28 36/36/36 34/34/34
f 36/36/36 28/28/28 30/30/30
f 30/30/30 38/38/38 36/36/36
f 2/2/2 18/18/18 41/41/41
f 41/41/41 42/42/42 2/2/2
f 42/42/42 43/43/43 2/2/2
f 44/44/44 41/41/41 6/6/6
f 6/6/6 5/5/5 44/44/44
f 45/45/45 44/44/44 5/5/5
f 46/46/46 47/47/47 48/48/48
f 48/48/48 49/49/49 46/46/46
f 41/41/41 18/18/18 20/20/20
f 50/50/50 51/51/51 12/12/12
f 11/11/11 52/52/52 53/53/53
f 53/53/53 12/12/12 11/11/11
f 39/39/39 54/54/54 52/52/52
f 52/52/52 11/11/11 39/39/39
f 54/54/54 39/39/39 31/31/31
f 55/55/55 56/56/56 57/57/57
f 57/57/57 58/58/58 55/55/55
f 35/35/35 33/33/33 32/32/32
f 2/2/2 43/43/43 3/3/3
f 4/4/4 9/9/9 59/59/59
f 59/59/59 5/5/5 4/4/4
f 60/60/60 59/59/59 9/9/9
f 13/13/13 61/61/61 14/14/14
f 61/61/61 13/13/13 22/22/22
f 14/14/14 61/61/61 40/40/40
f 22/22/22 24/24/24 62/62/62
f 62/62/62 61/61/61 22/22/22
f 24/24/24 1/1/1 62/62/62
f 61/61/61 29/29/29 28/28/28
f 40/40/40 61/61/61 28/28/28
f 43/43/43 42/42/42 63/63/63
f 63/63/63 42/42/42 41/41/41
f 64/64/64 65/65/65 45/45/45
f 45/45/45 65/65/65 44/44/44
f 5/5/5 66/66/66 67/67/67
f 65/65/65 63/63/63 41/41/41
f 41/41/41 44/44/44 65/65/65
f 66/66/66 5/5/5 46/46/46
f 46/46/46 49/49/49 68/68/68
f 69/69/69 45/45/45 5/5/5
f 69/69/69 64/64/64 45/45/45
f 31/31/31 70/70/70 54/54/54
f 31/31/31 33/33/33 70/70/70
f 59/59/59 47/47/47 46/46/46
f 46/46/46 5/5/5 59/59/59
f 58/58/58 57/57/57 71/71/71
f 71/71/71 60/60/60 58/58/58
f 71/71/71 59/59/59 60/60/60
f 62/62/62 29/29/29 61/61/61
f 64/64/64 69/69/69 72/72/72
f 65/65/65 64/64/64 73/73/73
f 63/63/63 65/65/65 73/73/73
f 62/62/62 1/1/1 74/74/74
f 29/29/29 62/62/62 74/74/74
f 48/48/48 47/47/47 75/75/75
f 71/71/71 47/47/47 59/59/59
f 75/75/75 47/47/47 71/71/71
f 50/50/50 55/55/55 51/51/51
f 12/12/12 53/53/53 50/50/50
f 55/55/55 58/58/58 51/51/51
f 68/68/68 66/66/66 46/46/46
f 68/68/68 76/76/76 67/67/67
f 69/69/69 5/5/5 67/67/67
f 66/66/66 68/68/68 67/67/67
f 76/76/76 69/69/69 67/67/67
f 69/69/69 76/76/76 72/72/72
f 58/58/58 60/60/60 51/51/51
f 12/12/12 9/9/9 8/8/8
f 9/9/9 12/12/12 51/51/51
f 60/60/60 9/9/9 51/51/51
f 17/17/17 7/7/7 77/77/77
f 15/15/15 21/21/21 10/10/10
f 10/10/10 78/78/78 15/15/15
f 9/9/9 78/78/78 10/10/10
f 17/17/17 77/77/77 20/20/20
f 77/77/77 6/6/6 41/41/41
f 20/20/20 77/77/77 41/41/41
f 9/9/9 4/4/4 78/78/78
f 7/7/7 15/15/15 78/78/78
f 7/7/7 17/17/17 15/15/15
f 4/4/4 7/7/7 78/78/78
f 77/77/77 7/7/7 6/6/6
f 55/55/55 50/50/50 79/79/79
f 50/50/50 80/80/53 79/79/79
f 81/81/70 82/82/33 79/79/79
f 83/83/80 81/81/70 79/79/79
f 82/82/33 84/84/81 79/79/79
f 84/84/81 85/85/37 79/79/79
f 86/86/82 83/83/80 79/79/79
f 87/87/56 55/55/55 79/79/79
f 80/80/53 86/86/82 79/79/79
f 1/1/1 3/3/3 88/88/83
f 89/89/84 90/90/85 91/91/86
f 92/92/87 90/90/85 89/89/84
f 93/93/88 94/94/89 95/95/90
f 93/93/88 96/96/91 97/97/92
f 98/98/93 99/99/94 100/100/95
f 99/99/94 98/98/93 101/101/96
f 101/101/96 102/102/97 99/99/94
f 103/103/98 104/104/99 105/105/100
f 106/106/101 94/94/89 93/93/88
f 106/106/101 100/100/95 99/99/94
f 107/107/102 108/108/103 109/109/104
f 108/108/103 105/105/100 110/110/105
f 111/111/106 98/98/93 107/107/102
f 107/107/102 109/109/104 111/111/106
f 98/98/93 111/111/106 101/101/96
f 101/101/96 104/104/99 102/102/97
f 104/104/99 101/101/96 112/112/107
f 112/112/107 105/105/100 104/104/99
f 105/105/100 112/112/107 110/110/105
f 108/108/103 103/103/98 105/105/100
f 1/1/1 88/88/83 103/103/98
f 1/1/1 103/103/98 108/108/103
f 101/101/96 111/111/106 112/112/107
f 111/111/106 109/109/104 112/112/107
f 109/109/104 110/110/105 112/112/107
f 109/109/104 108/108/103 110/110/105
f 113/113/108 30/30/30 29/29/29
f 114/114/109 115/115/110 116/116/111
f 117/117/112 114/114/109 116/116/111
f 117/117/112 116/116/111 118/118/113
f 119/119/114 117/117/112 118/118/113
f 119/119/114 118/118/113 37/37/37
f 119/119/114 37/37/37 38/38/38
f 97/97/92 106/106/101 93/93/88
f 106/106/101 97/97/92 120/120/115
f 120/120/115 100/100/95 106/106/101
f 100/100/95 120/120/115 114/114/109
f 114/114/109 121/121/116 100/100/95
f 121/121/116 114/114/109 117/117/112
f 117/117/112 113/113/108 121/121/116
f 113/113/108 117/117/112 119/119/114
f 119/119/114 30/30/30 113/113/108
f 30/30/30 119/119/114 38/38/38
f 88/88/83 122/122/117 103/103/98
f 122/122/117 88/88/83 123/123/118
f 123/123/118 88/88/83 43/43/43
f 124/124/119 90/90/85 122/122/117
f 90/90/85 124/124/119 91/91/86
f 125/125/120 91/91/86 124/124/119
f 126/126/121 48/48/48 127/127/122
f 48/48/48 126/126/121 49/49/49
f 122/122/117 104/104/99 103/103/98
f 128/128/123 96/96/91 129/129/124
f 97/97/92 130/130/125 131/131/126
f 130/130/125 97/97/92 96/96/91
f 120/120/115 131/131/126 132/132/127
f 131/131/126 120/120/115 97/97/92
f 132/132/127 114/114/109 120/120/115
f 133/133/128 57/57/57 56/56/56
f 57/57/57 133/133/128 134/134/129
f 118/118/113 116/116/111 115/115/110
f 88/88/83 3/3/3 43/43/43
f 89/89/84 135/135/130 95/95/90
f 135/135/130 89/89/84 91/91/86
f 136/136/131 95/95/90 135/135/130
f 98/98/93 100/100/95 137/137/132
f 137/137/132 107/107/102 98/98/93
f 100/100/95 121/121/116 137/137/132
f 107/107/102 138/138/133 108/108/103
f 138/138/133 107/107/102 137/137/132
f 138/138/133 1/1/1 108/108/103
f 137/137/132 113/113/108 29/29/29
f 121/121/116 113/113/108 137/137/132
f 43/43/43 63/63/63 123/123/118
f 63/63/63 122/122/117 123/123/118
f 64/64/64 125/125/120 139/139/134
f 125/125/120 124/124/119 139/139/134
f 91/91/86 140/140/135 141/141/136
f 139/139/134 122/122/117 63/63/63
f 122/122/117 139/139/134 124/124/119
f 141/141/136 126/126/121 91/91/86
f 126/126/121 68/68/68 49/49/49
f 142/142/137 91/91/86 125/125/120
f 142/142/137 125/125/120 64/64/64
f 114/114/109 132/132/127 143/143/138
f 114/114/109 143/143/138 115/115/110
f 135/135/130 126/126/121 127/127/122
f 126/126/121 135/135/130 91/91/86
f 134/134/129 71/71/71 57/57/57
f 71/71/71 134/134/129 136/136/131
f 71/71/71 136/136/131 135/135/130
f 138/138/133 137/137/132 29/29/29
f 64/64/64 72/72/72 142/142/137
f 139/139/134 73/73/73 64/64/64
f 63/63/63 73/73/73 139/139/134
f 74/74/74 1/1/1 138/138/133
f 29/29/29 74/74/74 138/138/133
f 48/48/48 75/75/75 127/127/122
f 71/71/71 135/135/130 127/127/122
f 75/75/75 71/71/71 127/127/122
f 128/128/123 129/129/124 133/133/128
f 96/96/91 128/128/123 130/130/125
f 133/133/128 129/129/124 134/134/129
f 68/68/68 126/126/121 141/141/136
f 68/68/68 140/140/135 76/76/76
f 142/142/137 140/140/135 91/91/86
f 141/141/136 140/140/135 68/68/68
f 76/76/76 140/140/135 142/142/137
f 142/142/137 72/72/72 76/76/76
f 134/134/129 129/129/124 136/136/131
f 96/96/91 93/93/88 95/95/90
f 95/95/90 129/129/124 96/96/91
f 136/136/131 129/129/124 95/95/90
f 102/102/97 144/144/139 92/92/87
f 99/99/94 94/94/89 106/106/101
f 94/94/89 99/99/94 145/145/140
f 95/95/90 94/94/89 145/145/140
f 102/102/97 104/104/99 144/144/139
f 144/144/139 122/122/117 90/90/85
f 104/104/99 122/122/117 144/144/139
f 95/95/90 145/145/140 89/89/84
f 92/92/87 145/145/140 99/99/94
f 92/92/87 99/99/94 102/102/97
f 89/89/84 145/145/140 92/92/87
f 144/144/139 90/90/85 92/92/87
f 133/133/128 146/146/79 128/128/123
f 128/128/123 146/146/79 147/147/141
f 148/148/142 146/146/79 149/149/143
f 150/150/144 146/146/79 148/148/142
f 149/149/143 146/146/79 151/151/145
f 151/151/145 146/146/79 37/37/37
f 152/152/146 146/146/79 150/150/144
f 153/153/147 146/146/79 133/133/128
f 147/147/141 146/146/79 152/152/146
